<svg width="70" height="15" viewBox="0 0 70 15" fill="none" xmlns="http://www.w3.org/2000/svg">
<circle cx="7" cy="8" r="7" fill="#120D31"/>
<path d="M16.6605 3.27273V12H18.7145V6.60938H18.7869L20.8835 11.9446H22.196L24.2926 6.6392H24.3651V12H26.419V3.27273H23.8068L21.5909 8.67614H21.4886L19.2727 3.27273H16.6605ZM35.9719 7.63636C35.9719 4.75142 34.1481 3.15341 31.8043 3.15341C29.4521 3.15341 27.641 4.75142 27.641 7.63636C27.641 10.5085 29.4521 12.1193 31.8043 12.1193C34.1481 12.1193 35.9719 10.5213 35.9719 7.63636ZM33.8157 7.63636C33.8157 9.34517 33.0657 10.2699 31.8043 10.2699C30.5472 10.2699 29.793 9.34517 29.793 7.63636C29.793 5.92756 30.5472 5.00284 31.8043 5.00284C33.0657 5.00284 33.8157 5.92756 33.8157 7.63636ZM45.4407 7.63636C45.4407 4.75142 43.6168 3.15341 41.2731 3.15341C38.9208 3.15341 37.1097 4.75142 37.1097 7.63636C37.1097 10.5085 38.9208 12.1193 41.2731 12.1193C43.6168 12.1193 45.4407 10.5213 45.4407 7.63636ZM43.2844 7.63636C43.2844 9.34517 42.5344 10.2699 41.2731 10.2699C40.016 10.2699 39.2617 9.34517 39.2617 7.63636C39.2617 5.92756 40.016 5.00284 41.2731 5.00284C42.5344 5.00284 43.2844 5.92756 43.2844 7.63636ZM48.3374 3.27273H45.9766L48.9212 12H51.7294L54.674 3.27273H52.3132L50.3615 9.66477H50.2891L48.3374 3.27273ZM55.6136 12H61.6989V10.2869H57.723V8.4929H61.3878V6.77557H57.723V4.9858H61.6989V3.27273H55.6136V12ZM63.0199 12H69.1051V10.2869H65.1293V8.4929H68.794V6.77557H65.1293V4.9858H69.1051V3.27273H63.0199V12Z" fill="black"/>
</svg>
